<svg width="58" height="40" viewBox="0 0 58 40" fill="none" xmlns="http://www.w3.org/2000/svg">
<path d="M54.2996 17.6333C50.0563 13.5119 42.3007 12.9748 38.7094 17.9019V7.74306C38.7094 3.46675 35.29 0 31.0722 0V15.499C30.4176 15.4306 27.2517 15.1336 24.6041 16.7747C23.3306 17.5636 22.3232 18.5849 21.5821 19.8373C20.9084 18.3331 19.9545 17.2214 18.7167 16.5048C17.5501 15.787 16.0665 15.428 14.2645 15.428C11.3304 15.428 9.12083 16.5578 7.63465 18.8147V16.0207H0V39.9987H7.63465V27.7405C7.63465 25.4487 8.13004 23.8154 9.12083 22.847C9.79196 22.2014 10.6758 21.8799 11.771 21.8799C12.8331 21.8799 13.68 22.2014 14.3167 22.847C15.1292 23.6733 15.538 25.2318 15.538 27.5249V39.9987H23.1727V28.0633C23.1727 25.9135 23.5611 24.337 24.3392 23.3325C25.0447 22.3654 26.0355 21.8812 27.309 21.8812C28.4755 21.8812 29.3937 22.3112 30.0674 23.1724C31.5166 25.0252 31.0735 32.2544 31.0735 32.2569C31.0735 36.5333 34.4928 40 38.7107 40V36.2918C40.3726 38.7644 42.8636 40 46.1874 40C58.143 40 61.3548 24.4855 54.2996 17.6333ZM48.7841 31.6656C47.6519 32.7773 46.3275 33.3325 44.8095 33.3325C43.1106 33.3325 41.6614 32.7398 40.4605 31.5571C39.9027 31.0252 39.4773 30.4196 39.187 29.7392C38.8673 29.0007 38.7094 28.173 38.7094 27.2563C38.7094 26.3447 38.8673 25.5068 39.1844 24.736C39.4646 24.0504 39.8734 23.4229 40.4057 22.8483C41.5378 21.6656 42.9693 21.0755 44.7025 21.0755C46.3275 21.0755 47.6889 21.6127 48.7841 22.6869C50.0219 23.8696 50.6408 25.3932 50.6408 27.2563C50.6421 29.0149 50.0232 30.4829 48.7841 31.6656Z" fill="#802AEA"/>
</svg>
